<?xml version="1.0" encoding="UTF-8" standalone="no"?>
<svg
   xmlns:dc="http://purl.org/dc/elements/1.1/"
   xmlns:cc="http://creativecommons.org/ns#"
   xmlns:rdf="http://www.w3.org/1999/02/22-rdf-syntax-ns#"
   xmlns:svg="http://www.w3.org/2000/svg"
   xmlns="http://www.w3.org/2000/svg"
   xmlns:xlink="http://www.w3.org/1999/xlink"
   xmlns:sodipodi="http://sodipodi.sourceforge.net/DTD/sodipodi-0.dtd"
   xmlns:inkscape="http://www.inkscape.org/namespaces/inkscape"
   fill="#000000"
   height="24"
   viewBox="0 0 24 24"
   width="24"
   id="svg2"
   version="1.1"
   inkscape:version="0.91 r13725"
   sodipodi:docname="date.svg">
  <metadata
     id="metadata14">
    <rdf:RDF>
      <cc:Work
         rdf:about="">
        <dc:format>image/svg+xml</dc:format>
        <dc:type
           rdf:resource="http://purl.org/dc/dcmitype/StillImage" />
        <dc:title></dc:title>
      </cc:Work>
    </rdf:RDF>
  </metadata>
  <defs
     id="defs12">
    <inkscape:perspective
       id="perspective3924"
       inkscape:persp3d-origin="32 : 42.666672 : 1"
       inkscape:vp_z="64 : 64.000008 : 1"
       inkscape:vp_y="0 : 1000 : 0"
       inkscape:vp_x="0 : 64.000008 : 1"
       sodipodi:type="inkscape:persp3d" />
    <linearGradient
       id="linearGradient3775">
      <stop
         style="stop-color:#939393;stop-opacity:1;"
         offset="0"
         id="stop3777" />
      <stop
         style="stop-color:#f0f0f0;stop-opacity:1;"
         offset="1"
         id="stop3779" />
    </linearGradient>
    <linearGradient
       inkscape:collect="always"
       xlink:href="#linearGradient3775"
       id="linearGradient3781"
       x1="64.520836"
       y1="31.139874"
       x2="64.520844"
       y2="213.05951"
       gradientUnits="userSpaceOnUse"
       gradientTransform="matrix(0.73584906,0,0,1.0260417,69.831162,551.34231)" />
  </defs>
  <sodipodi:namedview
     pagecolor="#ffffff"
     bordercolor="#666666"
     borderopacity="1"
     objecttolerance="10"
     gridtolerance="10"
     guidetolerance="10"
     inkscape:pageopacity="0"
     inkscape:pageshadow="2"
     inkscape:window-width="1497"
     inkscape:window-height="830"
     id="namedview10"
     showgrid="false"
     inkscape:zoom="3.4766083"
     inkscape:cx="5.7144543"
     inkscape:cy="0.8321228"
     inkscape:window-x="0"
     inkscape:window-y="0"
     inkscape:window-maximized="0"
     inkscape:current-layer="svg2" />
  <path
     d="M0 0h24v24H0z"
     fill="none"
     id="path6" />
  <path
     id="path3076"
     d="m -69.223403,29.0819 c -3.5,0 -6,2.5 -6,6 0,3.5 2.5,6 6,6 3.5,0 6,-2.5 6,-6 0,-3.5 -2.5,-6 -6,-6 z m -2.34375,2.5 2.34375,2.3438 2.34375,-2.3438 1.15625,1.1563 -2.34375,2.3437 2.34375,2.3438 -1.15625,1.1562 -2.34375,-2.3437 -2.34375,2.3437 -1.15625,-1.1562 2.34375,-2.3438 -2.34375,-2.3437 1.15625,-1.1563 z"
     style="fill:#ffffff;fill-opacity:1;stroke:none"
     inkscape:connector-curvature="0" />
  <g
     id="g6051"
     style="fill:none"
     transform="translate(-77.220801,-1105.3107)">
    <rect
       style="fill:none;stroke:none"
       id="rect6006"
       width="16"
       height="16"
       x="0"
       y="1084.3622"
       ry="0.066356063" />
    <rect
       style="fill:none;stroke:none"
       id="rect5932"
       width="16"
       height="16"
       x="0"
       y="1052.3622"
       ry="0.066356063" />
    <rect
       style="fill:none;stroke:none"
       id="rect5972"
       width="16"
       height="16"
       x="16"
       y="1068.3622"
       ry="0.066356063" />
    <rect
       ry="0.066356063"
       y="1052.3622"
       x="32"
       height="16"
       width="16"
       id="rect5974"
       style="fill:none;stroke:none" />
    <rect
       ry="0.066356063"
       y="1084.3622"
       x="32"
       height="16"
       width="16"
       id="rect6008"
       style="fill:none;stroke:none" />
    <rect
       style="fill:none;stroke:none"
       id="rect6010"
       width="16"
       height="16"
       x="16"
       y="1100.3622"
       ry="0.066356063" />
    <rect
       transform="matrix(0,-1,1,0,0,0)"
       ry="0.066356063"
       y="6.9337189e-14"
       x="-1132.3622"
       height="16"
       width="16"
       id="rect6012"
       style="fill:none;stroke:none" />
    <rect
       style="fill:none;stroke:none"
       id="rect6014"
       width="16"
       height="16"
       x="32"
       y="1116.3622"
       ry="0.066356063" />
    <rect
       ry="0.066356063"
       y="1132.3622"
       x="16"
       height="16"
       width="16"
       id="rect6037"
       style="fill:none;stroke:none" />
    <rect
       style="fill:none;stroke:none"
       id="rect6039"
       width="16"
       height="16"
       x="-1164.3622"
       y="6.9337189e-14"
       ry="0.066356063"
       transform="matrix(0,-1,1,0,0,0)" />
    <rect
       ry="0.066356063"
       y="1148.3622"
       x="32"
       height="16"
       width="16"
       id="rect6041"
       style="fill:none;stroke:none" />
  </g>
  <text
     xml:space="preserve"
     style="font-style:normal;font-variant:normal;font-weight:normal;font-stretch:normal;font-size:40px;line-height:125%;font-family:'Century Gothic';-inkscape-font-specification:'Century Gothic';letter-spacing:0px;word-spacing:0px;fill:#000000;fill-opacity:1;stroke:none"
     x="-26.280432"
     y="-16.741535"
     id="text5513"
     sodipodi:linespacing="125%"><tspan
       sodipodi:role="line"
       id="tspan5515"
       x="-26.280432"
       y="-16.741535" /></text>
  <g
     id="g3097"
     transform="translate(-80.220801,-1086.8107)" />
  <text
     xml:space="preserve"
     style="font-style:normal;font-variant:normal;font-weight:normal;font-stretch:normal;font-size:40px;line-height:125%;font-family:'Century Gothic';-inkscape-font-specification:'Century Gothic';letter-spacing:0px;word-spacing:0px;fill:#000000;fill-opacity:1;stroke:none"
     x="-7.8458009"
     y="-10.323484"
     id="text3869"
     sodipodi:linespacing="125%"><tspan
       y="-10.323484"
       x="-7.8458009"
       sodipodi:role="line"
       id="tspan3871" /></text>
  <g
     style="fill:#000000;fill-opacity:1"
     id="g3098"
     transform="matrix(1,0,0,-1,-112.7208,1161.4137)" />
  <g
     transform="translate(-72.720801,-1115.092)"
     id="g4281"
     style="fill:#ff0000;stroke:none" />
  <g
     id="g3073"
     style="fill:#f6f6f6;fill-opacity:1"
     transform="matrix(0.3333332,-0.31249971,0.3333332,0.31249971,-410.34137,-314.37384)" />
  <g
     transform="matrix(1.6471826,0,0,1.6471826,-27.891117,-1866.3847)"
     id="g3842"
     style="fill:#000000;fill-opacity:1">
    <path
       sodipodi:nodetypes="cccccccccccc"
       inkscape:connector-curvature="0"
       id="path3844"
       transform="translate(0,1036.3622)"
       d="m 18,97.999982 0,3.999998 0,8 12,0 0,-8 0,-3.999998 z m 1,3.999998 10,0 0,7 -10,0 z"
       style="fill:#000000;fill-opacity:1;stroke:none" />
    <path
       sodipodi:nodetypes="ccccccccccccc"
       inkscape:connector-curvature="0"
       id="path3846"
       d="m 21,1139.3622 0,1 3,0 0,1 -2,0 0,1 2,0 0,1 -3,0 0,1 4,0 0,-5 z"
       style="fill:#000000;fill-opacity:1;stroke:none" />
    <rect
       y="1139.3622"
       x="26"
       height="5.0000005"
       width="1"
       id="rect3848"
       style="fill:#000000;fill-opacity:1;stroke:none" />
  </g>
  <path
     sodipodi:nodetypes="sccccssccccsscscsccccscccccccccccccccccccccscssscscccccccccccccccccccccccccc"
     inkscape:connector-curvature="0"
     id="path3910"
     d="m -71.226004,-49.8878 c -2,0 -3,1 -3,1 l 0,1.3125 c -1.129217,0.2954 -2,0.6875 -2,0.6875 l 0,7 c 0,0 1,-0.5 3,-0.5 2,0 4.5,1 6.5,1 2,0 2.5,-0.5 2.5,-0.5 l 0,-1.5937 c 1.187061,-0.145 2,-0.4063 2,-0.4063 l 0,-7.5 c 0,0 -1.5,0.5 -3.5,0.5 -2,0 -3.5,-1 -5.5,-1 z m 3.375,1.5313 c -0.119256,-0.015 -0.248546,-0.031 -0.375,-0.031 -0.805415,0 -1.51153,0.3773 -1.96875,0.9688 -1.052471,-0.2331 -2.095293,-0.4688 -3.03125,-0.4688 -0.0312,0 0.03119,0.4995 0,0.5 0.09375,0 1,-0.5 0.828125,-1.3594 1.171875,-0.6406 2.955574,0.044 4.546875,0.3907 z m 0.34375,0.062 c 1.020877,0.2191 1.020208,0.4062 1.78125,0.4062 0.514286,0 0.93025,-0.039 1.28125,-0.094 0.141623,0.5365 0.540614,0.8125 1.21875,0.8125 l 0,3.5 c -0.468563,0 -0.788219,0.1486 -1,0.4062 l 0,-4.125 c 0,0 -0.141917,0.3642 -1.71875,0.4688 -0.295142,-0.6483 -0.870869,-1.1645 -1.5625,-1.375 z m -1.21875,0.4062 1,0 0,0.5 0,0.5 0.5,-0.031 c -0.640173,-0.045 -1.309206,-0.1658 -2,-0.3125 l 0.5,0.3437 0,-0.5 z m 2,2 c 0.514286,0 -0.06975,-0.039 0.28125,-0.094 0.141623,0.5365 0.540614,1.5937 1.21875,1.5937 l 0,2.5 c -0.821864,0 -1.247423,0.6182 -1.28125,1.4063 -0.337985,0.057 0.262339,0.094 -0.21875,0.094 -0.880696,0 -2.114708,-0.2746 -3.34375,-0.5312 1.3052,-0.083 2.34375,-1.1425 2.34375,-2.4688 0,-1.3807 -1.119288,-3 -2.5,-3 -1.380712,0 -2.5,1.1193 -2.5,2.5 0,0.9824 0.581927,2.3101 1.40625,2.7188 -0.705053,-0.1311 -1.37899,-0.2188 -1.90625,-0.2188 -0.67875,0 -0.508824,-0.094 -1,0 -0.118757,-0.596 -0.285279,-1 -1,-1 l 0,-2.5 c 0.75,0 1.15625,-1.0625 1.25,-1.7187 1.25,-0.7813 4.983979,0.6726 7.25,0.7187 z m -4,0 1,0 0,0.5 0.5,0 0.5,1 -1.5,0 1,0.5 0.5,1 -0.5,1 -0.5,0 0,0.5 -1,0 0,-0.5 -0.5,0 -0.5,-1 1.5,0 -1,-0.5 -0.5,-1 0.5,-1 0.5,0 z"
     style="fill:#ffffff;fill-opacity:1;stroke:none" />
  <path
     inkscape:connector-curvature="0"
     id="path3912"
     d="m -69.226004,-34.8878 c -1.380712,0 -2.5,1.1194 -2.5,2.5 0,0.8216 0.388193,1.5443 1,2 -0.195367,0.1455 -0.354477,0.3046 -0.5,0.5 l -2,0 -2,7 12,0 -2,-7 -2,0 c -0.145523,-0.1954 -0.304633,-0.3545 -0.5,-0.5 0.611807,-0.4557 1,-1.1784 1,-2 0,-1.3806 -1.119287,-2.5 -2.5,-2.5 z m 0,1 c 0.833333,0 1.5,0.6667 1.5,1.5 0,0.8333 -0.666667,1.5 -1.5,1.5 -0.833333,0 -1.5,-0.6667 -1.5,-1.5 0,-0.8333 0.666667,-1.5 1.5,-1.5 z"
     style="fill:#ffffff;fill-opacity:1;stroke:none" />
  <path
     sodipodi:nodetypes="ccsscscscccccccccscsccccccsscscssssssssssssssssssss"
     inkscape:connector-curvature="0"
     id="path3914"
     d="m -71.726004,-2.8878 0,1 c 0.375,0 0.476562,0.01 0.5,0.2188 0.0078,0.07 0,0.1562 0,0.2812 l 0,2.5 c 0,0 -5.5,7 -5,7.5 0.5,0.5 7,0.5 7,0.5 0,0 6.5,0 7,-0.5 0.5,-0.5 -5,-7.5 -5,-7.5 l 0,-2.5 0,-0.2812 c 0.02344,-0.211 0.125,-0.2188 0.5,-0.2188 l 0,-1 c -1.28551,0 -1.442465,0.056 -1.46875,1 l -0.03125,0 0,0.5 0,3 c 0,0 4.436508,5.58 4,6 -0.436508,0.42 -5,0.5 -5,0.5 0,0 -4.563492,-0.08 -5,-0.5 -0.436508,-0.42 4,-6 4,-6 l 0,-3 0,-0.5 -0.03125,0 c -0.02629,-0.9441 -0.18324,-1 -1.46875,-1 z m 1,6.5 c 0,0 -3,3 -2.5,3.5 0.5,0.5 7.5,0.5 8,0 0.5,-0.5 -2.5,-3.5 -2.5,-3.5 0,0 -0.5,0.5 -1.5,0.5 -1,0 -1.5,-0.5 -1.5,-0.5 z m 0.5,1 c 0.276142,0 0.5,0.2239 0.5,0.5 0,0.2762 -0.223858,0.5 -0.5,0.5 -0.276142,0 -0.5,-0.2238 -0.5,-0.5 0,-0.2761 0.223858,-0.5 0.5,-0.5 z m 2,0 c 0.276142,0 0.5,0.2239 0.5,0.5 0,0.2762 -0.223858,0.5 -0.5,0.5 -0.276142,0 -0.5,-0.2238 -0.5,-0.5 0,-0.2761 0.223858,-0.5 0.5,-0.5 z m -1,1 c 0.276142,0 0.5,0.2239 0.5,0.5 0,0.2762 -0.223858,0.5 -0.5,0.5 -0.276142,0 -0.5,-0.2238 -0.5,-0.5 0,-0.2761 0.223858,-0.5 0.5,-0.5 z m -1.5,0.5 c 0.276142,0 0.5,0.2239 0.5,0.5 0,0.2762 -0.223858,0.5 -0.5,0.5 -0.276142,0 -0.5,-0.2238 -0.5,-0.5 0,-0.2761 0.223858,-0.5 0.5,-0.5 z"
     style="fill:#ffffff;fill-opacity:1;stroke:none" />
  <path
     inkscape:connector-curvature="0"
     style="fill:#ffffff;fill-opacity:1;stroke:none"
     d="m -69.220801,45.114 c -0.5,0 -6.5,10.5455 -6,11 0.5,0.4546 11.5,0.4546 12,0 0.5,-0.4545 -5.5,-11 -6,-11 z m -1,3 2,0 c 0,2 0.03125,-0.7333 0,4 l -2,0 c 0.03125,-3.7333 0,-2 0,-4 z m 1,5.125 c 0.552285,0 1,0.422 1,0.9375 0,0.5155 -0.447715,0.9375 -1,0.9375 -0.552285,0 -1,-0.422 -1,-0.9375 0,-0.5155 0.447715,-0.9375 1,-0.9375 z"
     id="path3918" />
  <path
     inkscape:connector-curvature="0"
     id="path3924"
     d="m -70.226004,13.1122 c -0.5,0 -1,0.5 -1,1 l 0,3 -3,0 c -0.5,0 -1,0.5 -1,1 l 0,6 c 0,0.5 0.5,1 1,1 l 6,0 c 0.5,0 1,-0.5 1,-1 l 0,-3 3,0 c 0.5,0 1,-0.5 1,-1 l 0,-6 c 0,-0.5 -0.5,-1 -1,-1 l -6,0 z m 0.5,1 5,0 c 0.335756,0 0.5,0.173 0.5,0.5 l 0,5 c 0,0.327 -0.164243,0.5 -0.5,0.5 l -2.5,0 0,-2 c 0,-0.5 -0.5,-1 -1,-1 l -2.0625,0 0.0625,-2.5 c 0.0076,-0.3269 0.164243,-0.5 0.5,-0.5 z m 1,0.5 c -0.552285,0 -1,0.4477 -1,1 0,0.5523 0.447715,1 1,1 0.552285,0 1,-0.4477 1,-1 0,-0.5523 -0.447715,-1 -1,-1 z m 3,0 c -0.552285,0 -1,0.4477 -1,1 0,0.5523 0.447715,1 1,1 0.552285,0 1,-0.4477 1,-1 0,-0.5523 -0.447715,-1 -1,-1 z m 0,3 c -0.552285,0 -1,0.4477 -1,1 0,0.5523 0.447715,1 1,1 0.552285,0 1,-0.4477 1,-1 0,-0.5523 -0.447715,-1 -1,-1 z m -8,0.5 5,0 c 0.335756,0 0.5,0.173 0.5,0.5 l 0,5 c 0,0.327 -0.164243,0.5 -0.5,0.5 l -5,0 c -0.335778,0 -0.632578,-0.2668 -0.625,-0.5937 l 0.125,-4.9063 c 0.0076,-0.3269 0.164243,-0.5 0.5,-0.5 z m 1,0.5 c -0.552285,0 -1,0.4477 -1,1 0,0.5523 0.447715,1 1,1 0.552285,0 1,-0.4477 1,-1 0,-0.5523 -0.447715,-1 -1,-1 z m 1.5,1.5 c -0.552285,0 -1,0.4477 -1,1 0,0.5523 0.447715,1 1,1 0.552285,0 1,-0.4477 1,-1 0,-0.5523 -0.447715,-1 -1,-1 z m 1.5,1.5 c -0.552285,0 -1,0.4477 -1,1 0,0.5523 0.447715,1 1,1 0.552285,0 1,-0.4477 1,-1 0,-0.5523 -0.447715,-1 -1,-1 z"
     style="fill:#ffffff;fill-opacity:1;stroke:none" />
  <g
     style="fill:#ffffff;fill-opacity:1"
     id="g3926"
     transform="translate(-93.226004,-1153.25)">
    <path
       style="fill:#ffffff;fill-opacity:1;stroke:none"
       d="m 18,97.999982 0,3.999998 0,8 12,0 0,-8 0,-3.999998 z m 1,3.999998 10,0 0,7 -10,0 z"
       transform="translate(0,1036.3622)"
       id="path3928"
       inkscape:connector-curvature="0"
       sodipodi:nodetypes="cccccccccccc" />
    <path
       style="fill:#ffffff;fill-opacity:1;stroke:none"
       d="m 21,1139.3622 0,1 3,0 0,1 -2,0 0,1 2,0 0,1 -3,0 0,1 4,0 0,-5 z"
       id="path3930"
       inkscape:connector-curvature="0"
       sodipodi:nodetypes="ccccccccccccc" />
    <rect
       style="fill:#ffffff;fill-opacity:1;stroke:none"
       id="rect3932"
       width="1"
       height="5.0000005"
       x="26"
       y="1139.3622" />
  </g>
  <path
     inkscape:connector-curvature="0"
     style="fill:#ffffff;fill-opacity:1;stroke:none"
     d="m -65.038504,60.7369 c -0.984375,0.1406 -2.09375,1.2813 -2.09375,1.2813 -0.101216,0.063 -0.201221,0.1562 -0.28125,0.25 -0.02492,0.029 -0.0408,0.063 -0.0625,0.094 l -2.875,2.875 -1.15625,-0.5312 1.78125,-1.5938 -2,-1 -4.5,4 2,1 2.15625,-1.9375 1.21875,0.5625 -0.875,0.875 -1,0 -2.5,2.5 0,2 1.5,1.5 2,0 0.5,-0.5 2,-2 0,-1 1.78125,-1.7812 1.03125,0.4687 -2.3125,2.3125 2.5,1.5 4.5,-5 -2.5,-1 -1.6875,1.6875 -1.03125,-0.4687 1.90625,-1.9063 c 0.133358,-0.07 0.274123,-0.1319 0.375,-0.25 0.489252,-0.5729 0.326132,-1.5261 -0.3125,-2.1875 0.716003,-0.3842 1.401232,-0.9113 0.84375,-1.4687 -0.25,-0.25 -0.578125,-0.3282 -0.90625,-0.2813 z"
     id="path3934" />
</svg>
