<?xml version="1.0" encoding="utf-8"?>
<!-- Generator: Adobe Illustrator 16.0.4, SVG Export Plug-In . SVG Version: 6.00 Build 0)  -->
<!DOCTYPE svg PUBLIC "-//W3C//DTD SVG 1.1//EN" "http://www.w3.org/Graphics/SVG/1.1/DTD/svg11.dtd">
<svg version="1.1"
	 id="svg4219" xmlns:dc="http://purl.org/dc/elements/1.1/" xmlns:cc="http://creativecommons.org/ns#" xmlns:rdf="http://www.w3.org/1999/02/22-rdf-syntax-ns#" xmlns:svg="http://www.w3.org/2000/svg" xmlns:sodipodi="http://sodipodi.sourceforge.net/DTD/sodipodi-0.dtd" xmlns:inkscape="http://www.inkscape.org/namespaces/inkscape" sodipodi:docname="info.svg" inkscape:version="0.91 r13725"
	 xmlns="http://www.w3.org/2000/svg" xmlns:xlink="http://www.w3.org/1999/xlink" x="0px" y="0px" width="16px" height="16px"
	 viewBox="0 0 16 16" enable-background="new 0 0 16 16" xml:space="preserve">
<sodipodi:namedview  inkscape:cy="7.0971246" inkscape:cx="2.2450395" inkscape:zoom="31.643028" showgrid="false" id="namedview10" guidetolerance="10" gridtolerance="10" objecttolerance="10" borderopacity="1" bordercolor="#666666" pagecolor="#ffffff" inkscape:current-layer="svg4219" inkscape:window-maximized="0" inkscape:window-y="0" inkscape:window-x="0" inkscape:window-height="918" inkscape:window-width="1513" inkscape:pageshadow="2" inkscape:pageopacity="0">
	</sodipodi:namedview>
<defs>
	
	
		<inkscape:perspective  inkscape:vp_z="64 : 64.000008 : 1" inkscape:vp_y="0 : 1000 : 0" inkscape:vp_x="0 : 64.000008 : 1" sodipodi:type="inkscape:persp3d" id="perspective3924" inkscape:persp3d-origin="32 : 42.666672 : 1">
		</inkscape:perspective>
</defs>
<path id="rect6200" opacity="0.99" fill="none" stroke="#000000" stroke-width="0.815" enable-background="new    " d="M2.528,0.424
	h10.943c1.169,0,2.116,0.947,2.116,2.116v10.921c0,1.168-0.947,2.115-2.116,2.115H2.528c-1.168,0-2.116-0.947-2.116-2.115V2.54
	C0.413,1.371,1.36,0.424,2.528,0.424z"/>
<g>
	<path d="M6.377,9.874L6.36,9.45C6.312,8.619,6.589,7.771,7.322,6.892c0.521-0.62,0.945-1.141,0.945-1.695
		c0-0.57-0.375-0.945-1.189-0.978c-0.538,0-1.19,0.196-1.613,0.489L4.91,2.932C5.497,2.59,6.475,2.264,7.632,2.264
		c2.151,0,3.129,1.189,3.129,2.542c0,1.238-0.767,2.053-1.386,2.738c-0.603,0.668-0.848,1.304-0.83,2.037v0.293H6.377z
		 M5.953,12.123c0-0.863,0.603-1.483,1.45-1.483c0.88,0,1.45,0.62,1.467,1.483c0,0.848-0.586,1.483-1.467,1.483
		C6.54,13.606,5.953,12.971,5.953,12.123z"/>
</g>
</svg>
