<?xml version="1.0" encoding="UTF-8" standalone="no"?>
<svg
   xmlns:dc="http://purl.org/dc/elements/1.1/"
   xmlns:cc="http://creativecommons.org/ns#"
   xmlns:rdf="http://www.w3.org/1999/02/22-rdf-syntax-ns#"
   xmlns:svg="http://www.w3.org/2000/svg"
   xmlns="http://www.w3.org/2000/svg"
   xmlns:sodipodi="http://sodipodi.sourceforge.net/DTD/sodipodi-0.dtd"
   xmlns:inkscape="http://www.inkscape.org/namespaces/inkscape"
   height="16"
   viewBox="0 0 16 16"
   width="16"
   id="svg2"
   version="1.1"
   inkscape:version="0.91 r13725"
   sodipodi:docname="paper.svg"
   style="fill:#000000">
  <metadata
     id="metadata12">
    <rdf:RDF>
      <cc:Work
         rdf:about="">
        <dc:format>image/svg+xml</dc:format>
        <dc:type
           rdf:resource="http://purl.org/dc/dcmitype/StillImage" />
        <dc:title></dc:title>
      </cc:Work>
    </rdf:RDF>
  </metadata>
  <defs
     id="defs10" />
  <sodipodi:namedview
     pagecolor="#ffffff"
     bordercolor="#666666"
     borderopacity="1"
     objecttolerance="10"
     gridtolerance="10"
     guidetolerance="10"
     inkscape:pageopacity="0"
     inkscape:pageshadow="2"
     inkscape:window-width="845"
     inkscape:window-height="480"
     id="namedview8"
     showgrid="false"
     inkscape:zoom="9.8333333"
     inkscape:cx="12"
     inkscape:cy="12"
     inkscape:window-x="0"
     inkscape:window-y="0"
     inkscape:window-maximized="0"
     inkscape:current-layer="svg2" />
  <path
     d="m 0,0.13559322 15.864407,0 L 15.864407,16 0,16 Z"
     id="path4"
     inkscape:connector-curvature="0"
     style="fill:none" />
  <path
     d="m 13.220339,1.4576271 -7.9322034,0 c -0.7271187,0 -1.3220339,0.5949153 -1.3220339,1.3220339 l 0,7.932203 c 0,0.727119 0.5949152,1.322034 1.3220339,1.322034 l 7.9322034,0 c 0.727119,0 1.322034,-0.594915 1.322034,-1.322034 l 0,-7.932203 c 0,-0.7271186 -0.594915,-1.3220339 -1.322034,-1.3220339 z M 7.6016949,6.4152542 c 0,0.5486441 -0.4428813,0.9915255 -0.9915254,0.9915255 l -0.661017,0 0,1.3220339 -0.9915254,0 0,-3.9661017 1.6525424,0 c 0.5486441,0 0.9915254,0.4428813 0.9915254,0.9915254 l 0,0.6610169 z M 10.90678,7.7372881 c 0,0.5486441 -0.442882,0.9915255 -0.9915258,0.9915255 l -1.6525423,0 0,-3.9661017 1.6525423,0 c 0.5486438,0 0.9915258,0.4428813 0.9915258,0.9915254 l 0,1.9830508 z m 2.644067,-1.9830508 -0.991525,0 0,0.6610169 0.991525,0 0,0.9915255 -0.991525,0 0,1.3220339 -0.991525,0 0,-3.9661017 1.98305,0 0,0.9915254 z m -7.6016945,0.6610169 0.661017,0 0,-0.6610169 -0.661017,0 0,0.6610169 z m -3.3050847,-2.3135593 -1.3220339,0 0,9.2542371 c 0,0.727119 0.5949153,1.322034 1.3220339,1.322034 l 9.2542372,0 0,-1.322034 -9.2542372,0 0,-9.2542371 z m 6.6101695,3.6355932 0.6610169,0 0,-1.9830508 -0.6610169,0 0,1.9830508 z"
     id="path6"
     inkscape:connector-curvature="0" />
</svg>
