<?xml version="1.0" encoding="UTF-8" standalone="no"?>
<svg
   xmlns:dc="http://purl.org/dc/elements/1.1/"
   xmlns:cc="http://creativecommons.org/ns#"
   xmlns:rdf="http://www.w3.org/1999/02/22-rdf-syntax-ns#"
   xmlns:svg="http://www.w3.org/2000/svg"
   xmlns="http://www.w3.org/2000/svg"
   xmlns:xlink="http://www.w3.org/1999/xlink"
   xmlns:sodipodi="http://sodipodi.sourceforge.net/DTD/sodipodi-0.dtd"
   xmlns:inkscape="http://www.inkscape.org/namespaces/inkscape"
   version="1.1"
   id="svg4219"
   viewBox="0 0 32 16"
   height="16"
   width="32"
   inkscape:version="0.91 r13725"
   sodipodi:docname="scalemass.svg">
  <sodipodi:namedview
     pagecolor="#ffffff"
     bordercolor="#666666"
     borderopacity="1"
     objecttolerance="10"
     gridtolerance="10"
     guidetolerance="10"
     inkscape:pageopacity="0"
     inkscape:pageshadow="2"
     inkscape:window-width="1341"
     inkscape:window-height="762"
     id="namedview4254"
     showgrid="false"
     inkscape:zoom="9.6875"
     inkscape:cx="16"
     inkscape:cy="8"
     inkscape:window-x="0"
     inkscape:window-y="0"
     inkscape:window-maximized="0"
     inkscape:current-layer="svg4219" />
  <defs
     id="defs4221">
    <linearGradient
       id="linearGradient3775">
      <stop
         id="stop3777"
         offset="0"
         style="stop-color:#939393;stop-opacity:1;" />
      <stop
         id="stop3779"
         offset="1"
         style="stop-color:#f0f0f0;stop-opacity:1;" />
    </linearGradient>
    <linearGradient
       gradientTransform="matrix(0.73584906,0,0,1.0260417,69.831162,551.34231)"
       gradientUnits="userSpaceOnUse"
       y2="213.05951"
       x2="64.520844"
       y1="31.139874"
       x1="64.520836"
       id="linearGradient3781"
       xlink:href="#linearGradient3775" />
  </defs>
  <metadata
     id="metadata4224">
    <rdf:RDF>
      <cc:Work
         rdf:about="">
        <dc:format>image/svg+xml</dc:format>
        <dc:type
           rdf:resource="http://purl.org/dc/dcmitype/StillImage" />
        <dc:title />
      </cc:Work>
    </rdf:RDF>
  </metadata>
  <g
     transform="translate(0,-1036.3622)"
     id="layer1"
     style="stroke:none;fill:#ffffff;fill-opacity:1">
    <path
       id="path4298"
       d="m 24.964286,1038.3622 c -1.380712,0 -2.5,1.1194 -2.5,2.5 0,0.8215 0.388193,1.5443 1,2 -0.195367,0.1455 -0.354477,0.3046 -0.5,0.5 l -2,0 -2,7 12,0 -2,-7 -2,0 c -0.145523,-0.1954 -0.304633,-0.3545 -0.5,-0.5 0.611807,-0.4557 1,-1.1785 1,-2 0,-1.3806 -1.119287,-2.5 -2.5,-2.5 z m 0,1 c 0.833333,0 1.5,0.6667 1.5,1.5 0,0.8333 -0.666667,1.5 -1.5,1.5 -0.833333,0 -1.5,-0.6667 -1.5,-1.5 0,-0.8333 0.666667,-1.5 1.5,-1.5 z"
       style="fill:#ffffff;fill-opacity:1;stroke:none" />
    <circle
       r="5"
       cy="1044.3622"
       cx="6.4464288"
       id="path4140"
       style="opacity:0.98999999;fill:#ffffff;fill-opacity:1;stroke:none;stroke-width:0.5;stroke-miterlimit:4;stroke-dasharray:none;stroke-opacity:1" />
    <text
       id="text4142"
       y="1046.6586"
       x="12.28233"
       style="font-style:normal;font-weight:normal;font-size:7.33675051px;line-height:125%;font-family:sans-serif;letter-spacing:0px;word-spacing:0px;fill:#ffffff;fill-opacity:1;stroke:none;stroke-width:1px;stroke-linecap:butt;stroke-linejoin:miter;stroke-opacity:1"
       xml:space="preserve"><tspan
         y="1046.6586"
         x="12.28233"
         id="tspan4144"
         style="stroke:none;fill:#ffffff;fill-opacity:1">=</tspan></text>
  </g>
</svg>
