<?xml version="1.0" encoding="UTF-8" standalone="no"?>
<!-- Generator: Adobe Illustrator 16.0.4, SVG Export Plug-In . SVG Version: 6.00 Build 0)  -->

<svg
   xmlns:dc="http://purl.org/dc/elements/1.1/"
   xmlns:cc="http://creativecommons.org/ns#"
   xmlns:rdf="http://www.w3.org/1999/02/22-rdf-syntax-ns#"
   xmlns:svg="http://www.w3.org/2000/svg"
   xmlns="http://www.w3.org/2000/svg"
   xmlns:xlink="http://www.w3.org/1999/xlink"
   xmlns:sodipodi="http://sodipodi.sourceforge.net/DTD/sodipodi-0.dtd"
   xmlns:inkscape="http://www.inkscape.org/namespaces/inkscape"
   version="1.1"
   id="svg4219"
   sodipodi:docname="search.svg"
   inkscape:version="0.91 r13725"
   x="0px"
   y="0px"
   width="16px"
   height="16px"
   viewBox="0 0 16 16"
   enable-background="new 0 0 16 16"
   xml:space="preserve"><metadata
     id="metadata12"><rdf:RDF><cc:Work
         rdf:about=""><dc:format>image/svg+xml</dc:format><dc:type
           rdf:resource="http://purl.org/dc/dcmitype/StillImage" /><dc:title></dc:title></cc:Work></rdf:RDF></metadata><sodipodi:namedview
     inkscape:cy="7.5083344"
     inkscape:cx="5.665666"
     inkscape:zoom="44.749999"
     showgrid="false"
     id="namedview10"
     guidetolerance="10"
     gridtolerance="10"
     objecttolerance="10"
     borderopacity="1"
     bordercolor="#666666"
     pagecolor="#ffffff"
     inkscape:current-layer="svg4219"
     inkscape:window-maximized="0"
     inkscape:window-y="32"
     inkscape:window-x="349"
     inkscape:window-height="918"
     inkscape:window-width="1513"
     inkscape:pageshadow="2"
     inkscape:pageopacity="0" /><defs
     id="defs4"><inkscape:perspective
       inkscape:vp_z="64 : 64.000008 : 1"
       inkscape:vp_y="0 : 1000 : 0"
       inkscape:vp_x="0 : 64.000008 : 1"
       sodipodi:type="inkscape:persp3d"
       id="perspective3924"
       inkscape:persp3d-origin="32 : 42.666672 : 1" /><inkscape:perspective
       id="perspective3924-1"
       inkscape:persp3d-origin="32 : 42.666672 : 1"
       inkscape:vp_z="64 : 64.000008 : 1"
       inkscape:vp_y="0 : 1000 : 0"
       inkscape:vp_x="0 : 64.000008 : 1"
       sodipodi:type="inkscape:persp3d" /><linearGradient
       id="linearGradient3775"><stop
         style="stop-color:#939393;stop-opacity:1;"
         offset="0"
         id="stop3777" /><stop
         style="stop-color:#f0f0f0;stop-opacity:1;"
         offset="1"
         id="stop3779" /></linearGradient><linearGradient
       inkscape:collect="always"
       xlink:href="#linearGradient3775"
       id="linearGradient3781"
       x1="64.520836"
       y1="31.139874"
       x2="64.520844"
       y2="213.05951"
       gradientUnits="userSpaceOnUse"
       gradientTransform="matrix(0.73584906,0,0,1.0260417,69.831162,551.34231)" /><inkscape:perspective
       id="perspective3924-9"
       inkscape:persp3d-origin="32 : 42.666672 : 1"
       inkscape:vp_z="64 : 64.000008 : 1"
       inkscape:vp_y="0 : 1000 : 0"
       inkscape:vp_x="0 : 64.000008 : 1"
       sodipodi:type="inkscape:persp3d" /></defs><path
     id="rect6200"
     opacity="0.99"
     fill="none"
     stroke="#000000"
     stroke-width="0.815"
     enable-background="new    "
     d="M2.528,0.424  h10.943c1.169,0,2.116,0.947,2.116,2.116v10.921c0,1.168-0.947,2.115-2.116,2.115H2.528c-1.168,0-2.116-0.947-2.116-2.115V2.54  C0.413,1.371,1.36,0.424,2.528,0.424z" /><path
     style="fill:none"
     inkscape:connector-curvature="0"
     d="M 0,0 16,0 16,16 0,16 Z"
     id="path4192" /><path
     style="fill:#000000"
     d="m 10.575829,9.5471702 -0.542024,0 L 9.8416958,9.3619217 C 10.51408,8.5797602 10.918882,7.5643232 10.918882,6.4596912 c 0,-2.4631216 -1.99657,-4.4596908 -4.4596911,-4.4596908 -2.4631216,0 -4.459691,1.9965692 -4.459691,4.4596908 0,2.463122 1.9965693,4.4596898 4.459691,4.4596898 1.1046312,0 2.1200685,-0.404802 2.9022293,-1.0771863 l 0.1852488,0.1921093 0,0.542024 L 12.977202,14 13.9995,12.977702 10.575829,9.5471702 Z m -4.1166381,0 c -1.7084046,0 -3.0874783,-1.3790745 -3.0874783,-3.087479 0,-1.7084046 1.3790737,-3.0874783 3.0874783,-3.0874783 1.7084048,0 3.0874781,1.3790737 3.0874781,3.0874783 0,1.7084045 -1.3790734,3.087479 -3.0874782,3.087479 z"
     id="path4"
     inkscape:connector-curvature="0" /><path
     d="m 1.1843579,2.3687148 12.0000001,0 0,12.0000002 -12.0000001,0 z"
     id="path6"
     inkscape:connector-curvature="0"
     style="fill:none" /></svg>