<?xml version="1.0" encoding="UTF-8" standalone="no"?>
<svg
   xmlns:dc="http://purl.org/dc/elements/1.1/"
   xmlns:cc="http://creativecommons.org/ns#"
   xmlns:rdf="http://www.w3.org/1999/02/22-rdf-syntax-ns#"
   xmlns:svg="http://www.w3.org/2000/svg"
   xmlns="http://www.w3.org/2000/svg"
   xmlns:xlink="http://www.w3.org/1999/xlink"
   xmlns:sodipodi="http://sodipodi.sourceforge.net/DTD/sodipodi-0.dtd"
   xmlns:inkscape="http://www.inkscape.org/namespaces/inkscape"
   height="16"
   viewBox="0 0 16 16"
   width="16"
   id="svg2"
   version="1.1"
   inkscape:version="0.91 r13725"
   sodipodi:docname="search-dropdown.svg"
   style="fill:#000000">
  <metadata
     id="metadata12">
    <rdf:RDF>
      <cc:Work
         rdf:about="">
        <dc:format>image/svg+xml</dc:format>
        <dc:type
           rdf:resource="http://purl.org/dc/dcmitype/StillImage" />
        <dc:title></dc:title>
      </cc:Work>
    </rdf:RDF>
  </metadata>
  <defs
     id="defs10">
    <inkscape:perspective
       sodipodi:type="inkscape:persp3d"
       inkscape:vp_x="0 : 64.000008 : 1"
       inkscape:vp_y="0 : 1000 : 0"
       inkscape:vp_z="64 : 64.000008 : 1"
       inkscape:persp3d-origin="32 : 42.666672 : 1"
       id="perspective3924" />
    <linearGradient
       id="linearGradient3775">
      <stop
         id="stop3777"
         offset="0"
         style="stop-color:#939393;stop-opacity:1;" />
      <stop
         id="stop3779"
         offset="1"
         style="stop-color:#f0f0f0;stop-opacity:1;" />
    </linearGradient>
    <linearGradient
       gradientTransform="matrix(0.73584906,0,0,1.0260417,69.831162,551.34231)"
       gradientUnits="userSpaceOnUse"
       y2="213.05951"
       x2="64.520844"
       y1="31.139874"
       x1="64.520836"
       id="linearGradient3781"
       xlink:href="#linearGradient3775"
       inkscape:collect="always" />
    <inkscape:perspective
       sodipodi:type="inkscape:persp3d"
       inkscape:vp_x="0 : 64.000008 : 1"
       inkscape:vp_y="0 : 1000 : 0"
       inkscape:vp_z="64 : 64.000008 : 1"
       inkscape:persp3d-origin="32 : 42.666672 : 1"
       id="perspective3924-9" />
  </defs>
  <sodipodi:namedview
     pagecolor="#ffffff"
     bordercolor="#666666"
     borderopacity="1"
     objecttolerance="10"
     gridtolerance="10"
     guidetolerance="10"
     inkscape:pageopacity="0"
     inkscape:pageshadow="2"
     inkscape:window-width="1206"
     inkscape:window-height="840"
     id="namedview8"
     showgrid="false"
     inkscape:zoom="9.8333333"
     inkscape:cx="12"
     inkscape:cy="12"
     inkscape:window-x="404"
     inkscape:window-y="24"
     inkscape:window-maximized="0"
     inkscape:current-layer="svg2" />
  <path
     d="m 11.521276,9.2397398 -0.612456,0 -0.217073,-0.2093209 c 0.759757,-0.8837978 1.21716,-2.0311848 1.21716,-3.2793557 0,-2.7831885 -2.2560115,-5.03919904 -5.0391994,-5.03919904 -2.7831885,0 -5.0391992,2.25601054 -5.0391992,5.03919904 0,2.7831884 2.2560107,5.0391978 5.0391992,5.0391978 1.2481709,0 2.3955578,-0.457403 3.2793554,-1.2171593 l 0.209321,0.2170737 0,0.6124556 3.876308,3.868555 1.155139,-1.155139 -3.868555,-3.8763072 z m -4.6515684,0 c -1.9304009,0 -3.4886764,-1.5582757 -3.4886764,-3.4886766 0,-1.9304009 1.5582755,-3.4886764 3.4886764,-3.4886764 1.9304009,0 3.4886764,1.5582755 3.4886764,3.4886764 0,1.9304009 -1.5582755,3.4886766 -3.4886764,3.4886766 z"
     id="path4"
     inkscape:connector-curvature="0" />
  <path
     d="m 0,-8 24,0 0,24 -24,0 z"
     id="path6"
     inkscape:connector-curvature="0"
     style="fill:none" />
  <g
     transform="matrix(0.4279661,0,0,0.4279661,3.4915252,-435.15496)"
     id="layer1"
     inkscape:label="Layer 1">
    <path
       sodipodi:nodetypes="cccc"
       inkscape:connector-curvature="0"
       id="path3107"
       d="m 8.0001005,1052.3622 -8.0001005,-8 16.000001,0 z"
       style="fill:#000000;fill-opacity:1;stroke:none" />
  </g>
</svg>
