<?xml version="1.0" encoding="UTF-8" standalone="no"?>
<svg
   xmlns:dc="http://purl.org/dc/elements/1.1/"
   xmlns:cc="http://creativecommons.org/ns#"
   xmlns:rdf="http://www.w3.org/1999/02/22-rdf-syntax-ns#"
   xmlns:svg="http://www.w3.org/2000/svg"
   xmlns="http://www.w3.org/2000/svg"
   xmlns:xlink="http://www.w3.org/1999/xlink"
   width="16"
   height="16"
   viewBox="0 0 16 16"
   id="svg4219"
   version="1.1">
  <defs
     id="defs4221">
    <linearGradient
       id="linearGradient3775">
      <stop
         style="stop-color:#939393;stop-opacity:1;"
         offset="0"
         id="stop3777" />
      <stop
         style="stop-color:#f0f0f0;stop-opacity:1;"
         offset="1"
         id="stop3779" />
    </linearGradient>
    <linearGradient
       xlink:href="#linearGradient3775"
       id="linearGradient3781"
       x1="64.520836"
       y1="31.139874"
       x2="64.520844"
       y2="213.05951"
       gradientUnits="userSpaceOnUse"
       gradientTransform="matrix(0.73584906,0,0,1.0260417,69.831162,551.34231)" />
  </defs>
  <metadata
     id="metadata4224">
    <rdf:RDF>
      <cc:Work
         rdf:about="">
        <dc:format>image/svg+xml</dc:format>
        <dc:type
           rdf:resource="http://purl.org/dc/dcmitype/StillImage" />
        <dc:title></dc:title>
      </cc:Work>
    </rdf:RDF>
  </metadata>
  <path
     id="rect3917"
     d="m 4.2059938,1.4538998 0.387139,2.2412 c -0.329232,0.2613 -0.632055,0.553 -0.888853,0.8755 l -2.215582,-0.3676 -0.74909825,1.8662 1.81463825,1.2779 c -0.05141,0.423 -0.05722,0.8565 -0.0075,1.2884 L 0.68822155,9.9465002 1.4535888,11.7943 3.6947878,11.4072 c 0.270241,0.3405 0.58088,0.6429 0.916377,0.9057 l -0.379576,2.1867 1.849313,0.79 1.306709,-1.8266 c 0.409684,0.046 0.830071,0.039 1.247619,-0.01 l 1.3110177,1.8585 1.8477585,-0.7654 -0.387139,-2.2412 c 0.329232,-0.2613 0.632059,-0.5529 0.888853,-0.8755 l 2.215582,0.3676 0.749098,-1.8662002 -1.814638,-1.2779 c 0.05141,-0.423 0.05722,-0.8565 0.0075,-1.2884 l 1.858516,-1.311 -0.765367,-1.8478 -2.241199,0.3871 c -0.270241,-0.3405 -0.58088,-0.6429 -0.916377,-0.9057 l 0.379576,-2.1867 L 9.9190985,0.71039981 8.6123898,2.5369998 c -0.40968,-0.046 -0.830071,-0.039 -1.247619,0.01 L 6.0537528,0.68849981 4.2059938,1.4538998 Z m 2.454613,3.3128 c 0.935448,-0.3875 1.87987,-0.3694 2.692382,-0.033 0.8125122,0.3365 1.4931202,0.9916 1.8805872,1.927 0.387486,0.9355 0.369387,1.8799 0.03283,2.6924 C 10.929849,10.1656 10.274839,10.8462 9.3393918,11.2337 c -0.935448,0.3875 -1.879874,0.3694 -2.692382,0.033 -0.8125091,-0.3365 -1.4931021,-0.9915 -1.880588,-1.9270002 -0.387467,-0.9354 -0.369383,-1.8799 -0.03283,-2.6924 0.336553,-0.8125 0.991567,-1.4931 1.927015,-1.8806 z"
     style="fill:#000000;fill-opacity:1;stroke:none" />
</svg>
