<?xml version="1.0" encoding="UTF-8" standalone="no"?>
<!-- Generator: Adobe Illustrator 16.0.4, SVG Export Plug-In . SVG Version: 6.00 Build 0)  -->

<svg
   xmlns:dc="http://purl.org/dc/elements/1.1/"
   xmlns:cc="http://creativecommons.org/ns#"
   xmlns:rdf="http://www.w3.org/1999/02/22-rdf-syntax-ns#"
   xmlns:svg="http://www.w3.org/2000/svg"
   xmlns="http://www.w3.org/2000/svg"
   xmlns:sodipodi="http://sodipodi.sourceforge.net/DTD/sodipodi-0.dtd"
   xmlns:inkscape="http://www.inkscape.org/namespaces/inkscape"
   version="1.1"
   id="svg4219"
   sodipodi:docname="share-wh.svg"
   inkscape:version="0.91 r13725"
   x="0px"
   y="0px"
   width="16px"
   height="16px"
   viewBox="0 0 16 16"
   enable-background="new 0 0 16 16"
   xml:space="preserve"><metadata
     id="metadata12"><rdf:RDF><cc:Work
         rdf:about=""><dc:format>image/svg+xml</dc:format><dc:type
           rdf:resource="http://purl.org/dc/dcmitype/StillImage" /><dc:title></dc:title></cc:Work></rdf:RDF></metadata><sodipodi:namedview
     inkscape:cy="7.5083344"
     inkscape:cx="5.665666"
     inkscape:zoom="44.749999"
     showgrid="false"
     id="namedview10"
     guidetolerance="10"
     gridtolerance="10"
     objecttolerance="10"
     borderopacity="1"
     bordercolor="#666666"
     pagecolor="#ffffff"
     inkscape:current-layer="svg4219"
     inkscape:window-maximized="0"
     inkscape:window-y="34"
     inkscape:window-x="46"
     inkscape:window-height="918"
     inkscape:window-width="1513"
     inkscape:pageshadow="2"
     inkscape:pageopacity="0" /><defs
     id="defs4"><inkscape:perspective
       inkscape:vp_z="64 : 64.000008 : 1"
       inkscape:vp_y="0 : 1000 : 0"
       inkscape:vp_x="0 : 64.000008 : 1"
       sodipodi:type="inkscape:persp3d"
       id="perspective3924"
       inkscape:persp3d-origin="32 : 42.666672 : 1" /></defs><path
     id="rect6200"
     opacity="0.99"
     fill="none"
     stroke="#000000"
     stroke-width="0.815"
     enable-background="new    "
     d="M2.528,0.424  h10.943c1.169,0,2.116,0.947,2.116,2.116v10.921c0,1.168-0.947,2.115-2.116,2.115H2.528c-1.168,0-2.116-0.947-2.116-2.115V2.54  C0.413,1.371,1.36,0.424,2.528,0.424z"
     style="stroke:#ffffff;stroke-opacity:1" /><path
     style="fill:none"
     inkscape:connector-curvature="0"
     d="M 0,0 16,0 16,16 0,16 Z"
     id="path4192" /><path
     style="fill:#ffffff;stroke:none;stroke-opacity:1;fill-opacity:1"
     inkscape:connector-curvature="0"
     d="m 12,10.72 c -0.506667,0 -0.96,0.2 -1.306667,0.513333 L 5.94,8.4666667 C 5.9733334,8.3133334 6,8.16 6,8 6,7.84 5.9733334,7.6866667 5.94,7.5333334 l 4.7,-2.74 c 0.36,0.3333333 0.833333,0.54 1.36,0.54 1.106667,0 2,-0.8933334 2,-2 0,-1.1066667 -0.893333,-2.0000001 -2,-2.0000001 -1.106667,0 -2,0.8933334 -2,2.0000001 0,0.16 0.02667,0.3133333 0.06,0.4666666 L 5.36,6.54 C 5,6.2066667 4.5266667,6 4,6 2.8933333,6 2,6.8933334 2,8 2,9.1066667 2.8933333,10 4,10 4.5266667,10 5,9.7933334 5.36,9.46 l 4.746667,2.773333 c -0.03333,0.14 -0.05333,0.286667 -0.05333,0.433334 0,1.073333 0.873334,1.946666 1.946667,1.946666 1.073333,0 1.946667,-0.873333 1.946667,-1.946666 C 13.946667,11.593333 13.073333,10.72 12,10.72 Z"
     id="path4194" /></svg>