<?xml version="1.0" encoding="UTF-8" standalone="no"?>
<!-- Generator: Adobe Illustrator 16.0.4, SVG Export Plug-In . SVG Version: 6.00 Build 0)  -->

<svg
   xmlns:dc="http://purl.org/dc/elements/1.1/"
   xmlns:cc="http://creativecommons.org/ns#"
   xmlns:rdf="http://www.w3.org/1999/02/22-rdf-syntax-ns#"
   xmlns:svg="http://www.w3.org/2000/svg"
   xmlns="http://www.w3.org/2000/svg"
   xmlns:sodipodi="http://sodipodi.sourceforge.net/DTD/sodipodi-0.dtd"
   xmlns:inkscape="http://www.inkscape.org/namespaces/inkscape"
   version="1.1"
   id="svg4219"
   sodipodi:docname="share.svg"
   inkscape:version="0.91 r13725"
   x="0px"
   y="0px"
   width="16px"
   height="16px"
   viewBox="0 0 16 16"
   enable-background="new 0 0 16 16"
   xml:space="preserve"><metadata
     id="metadata12"><rdf:RDF><cc:Work
         rdf:about=""><dc:format>image/svg+xml</dc:format><dc:type
           rdf:resource="http://purl.org/dc/dcmitype/StillImage" /><dc:title></dc:title></cc:Work></rdf:RDF></metadata><sodipodi:namedview
     inkscape:cy="7.5083344"
     inkscape:cx="10.928236"
     inkscape:zoom="44.749999"
     showgrid="false"
     id="namedview10"
     guidetolerance="10"
     gridtolerance="10"
     objecttolerance="10"
     borderopacity="1"
     bordercolor="#666666"
     pagecolor="#ffffff"
     inkscape:current-layer="svg4219"
     inkscape:window-maximized="0"
     inkscape:window-y="32"
     inkscape:window-x="349"
     inkscape:window-height="918"
     inkscape:window-width="1513"
     inkscape:pageshadow="2"
     inkscape:pageopacity="0" /><defs
     id="defs4"><inkscape:perspective
       inkscape:vp_z="64 : 64.000008 : 1"
       inkscape:vp_y="0 : 1000 : 0"
       inkscape:vp_x="0 : 64.000008 : 1"
       sodipodi:type="inkscape:persp3d"
       id="perspective3924"
       inkscape:persp3d-origin="32 : 42.666672 : 1" /></defs><path
     id="rect6200"
     opacity="0.99"
     fill="none"
     stroke="#000000"
     stroke-width="0.815"
     enable-background="new    "
     d="M2.528,0.424  h10.943c1.169,0,2.116,0.947,2.116,2.116v10.921c0,1.168-0.947,2.115-2.116,2.115H2.528c-1.168,0-2.116-0.947-2.116-2.115V2.54  C0.413,1.371,1.36,0.424,2.528,0.424z" /><g
     style="fill:#000000"
     id="g4202"
     transform="scale(0.66666667,0.66666667)"><path
       id="path4192"
       d="M 0,0 24,0 24,24 0,24 Z"
       inkscape:connector-curvature="0"
       style="fill:none" /><path
       id="path4194"
       d="m 18,16.08 c -0.76,0 -1.44,0.3 -1.96,0.77 L 8.91,12.7 C 8.96,12.47 9,12.24 9,12 9,11.76 8.96,11.53 8.91,11.3 L 15.96,7.19 C 16.5,7.69 17.21,8 18,8 19.66,8 21,6.66 21,5 21,3.34 19.66,2 18,2 c -1.66,0 -3,1.34 -3,3 0,0.24 0.04,0.47 0.09,0.7 L 8.04,9.81 C 7.5,9.31 6.79,9 6,9 4.34,9 3,10.34 3,12 c 0,1.66 1.34,3 3,3 0.79,0 1.5,-0.31 2.04,-0.81 l 7.12,4.16 c -0.05,0.21 -0.08,0.43 -0.08,0.65 0,1.61 1.31,2.92 2.92,2.92 1.61,0 2.92,-1.31 2.92,-2.92 0,-1.61 -1.31,-2.92 -2.92,-2.92 z"
       inkscape:connector-curvature="0" /></g></svg>